<?xml version="1.0" encoding="utf-8"?>
<!-- Generator: Adobe Illustrator 28.0.0, SVG Export Plug-In . SVG Version: 6.00 Build 0)  -->
<svg version="1.1" xmlns="http://www.w3.org/2000/svg" xmlns:xlink="http://www.w3.org/1999/xlink" x="0px" y="0px"
	 viewBox="0 0 524.32 665.33" style="enable-background:new 0 0 524.32 665.33;" xml:space="preserve">
<style type="text/css">
	.st0{fill:#241835;}
	.st1{fill:#FFFFFF;}
	.st2{fill:#FFCD05;}
	.st3{fill:#A3CD3A;}
	.st4{fill:#00AEEF;}
	.st5{fill:#EE2033;}
	.st6{fill:#241734;}
</style>
<g id="Layer_1">
</g>
<g id="Layer_2">
	<g>
		<g>
			<polygon class="st0" points="159.83,288.42 144.36,250.77 129.91,271.91 152.09,301.31 			"/>
			<path class="st0" d="M152.09,303.81c-0.78,0-1.52-0.37-1.99-0.99l-22.18-29.4c-0.65-0.85-0.67-2.03-0.07-2.91l14.44-21.15
				c0.52-0.76,1.41-1.17,2.32-1.07c0.91,0.1,1.7,0.68,2.05,1.53l15.47,37.65c0.3,0.73,0.24,1.56-0.17,2.23l-7.74,12.9
				c-0.43,0.71-1.18,1.16-2.01,1.21C152.18,303.81,152.14,303.81,152.09,303.81z M132.98,271.84l18.87,25.02l5.19-8.65l-13.24-32.21
				L132.98,271.84z"/>
		</g>
		<g>
			<path class="st0" d="M356.34,299.25c0,0,56.44-6.84,61.6-30.05l15.2,3.8c0,0-25.75,49.92-88.67,49.4L356.34,299.25z"/>
			<path class="st0" d="M345.42,324.9c-0.32,0-0.65,0-0.97,0c-0.87-0.01-1.67-0.46-2.11-1.2c-0.45-0.74-0.48-1.66-0.09-2.43
				l11.87-23.15c0.38-0.74,1.1-1.24,1.92-1.34c0.14-0.02,14.11-1.75,28.49-6.25c12.81-4.01,28.58-11.06,30.98-21.87
				c0.15-0.66,0.55-1.23,1.12-1.58c0.57-0.35,1.26-0.46,1.92-0.3l15.2,3.8c0.74,0.18,1.35,0.7,1.67,1.39s0.29,1.49-0.06,2.17
				c-0.27,0.53-6.82,13.05-21.32,25.64C400.8,311.27,378.18,324.9,345.42,324.9z M357.97,301.55l-9.39,18.31
				c29.43-0.83,49.89-13.22,62.04-23.72c9.9-8.56,16-17.24,18.69-21.53l-9.66-2.41C411.79,293.16,366.54,300.37,357.97,301.55z"/>
		</g>
		<g>
			<path class="st1" d="M393.86,316.38c0,0,27.5-6.31,63.84,8.83l-22.97-56.63L393.86,316.38z"/>
			<path class="st0" d="M457.7,327.71c-0.32,0-0.65-0.06-0.96-0.19c-35.19-14.66-62.05-8.76-62.32-8.7
				c-1.05,0.24-2.13-0.22-2.69-1.14c-0.56-0.92-0.46-2.1,0.24-2.91l40.87-47.8c0.57-0.66,1.43-0.98,2.3-0.84
				c0.86,0.14,1.58,0.72,1.91,1.52l22.97,56.63c0.38,0.93,0.16,2-0.56,2.71C458.98,327.46,458.35,327.71,457.7,327.71z
				 M409.23,312.55c10.7,0,26.09,1.6,43.97,8.21l-19.25-47.44l-33.89,39.64C402.53,312.73,405.61,312.55,409.23,312.55z"/>
		</g>
		<g>
			<polygon class="st2" points="327.85,159.3 312.54,223.27 357.94,207.03 320.33,286.26 324.56,235.09 279.27,250.63 			"/>
			<path class="st0" d="M320.33,288.75c-0.21,0-0.43-0.03-0.65-0.09c-1.16-0.31-1.94-1.41-1.84-2.61l3.92-47.36l-41.69,14.3
				c-0.97,0.33-2.04,0.04-2.71-0.74c-0.67-0.78-0.79-1.89-0.3-2.79l48.58-91.34c0.59-1.11,1.91-1.61,3.09-1.16
				c1.17,0.44,1.84,1.69,1.54,2.91l-14.23,59.49l41.06-14.69c0.95-0.34,2.01-0.07,2.69,0.67s0.84,1.83,0.4,2.74l-37.61,79.23
				C322.16,288.22,321.28,288.75,320.33,288.75z M324.56,232.6c0.55,0,1.09,0.18,1.53,0.53c0.67,0.52,1.02,1.33,0.95,2.17
				l-3.1,37.53l29.15-61.41l-39.72,14.2c-0.86,0.31-1.82,0.12-2.51-0.49c-0.68-0.61-0.97-1.55-0.76-2.44l10.76-44.97l-36.43,68.5
				l39.32-13.49C324.02,232.64,324.29,232.6,324.56,232.6z"/>
		</g>
		<g>
			<polygon class="st2" points="379.06,180.82 408.4,273.88 453.77,218.6 466.36,348.07 432.71,279.75 386.94,334.08 			"/>
			<path class="st0" d="M466.36,350.57c-0.93,0-1.81-0.52-2.24-1.39l-31.96-64.9l-43.31,51.4c-0.66,0.78-1.73,1.08-2.7,0.76
				c-0.97-0.33-1.64-1.21-1.7-2.24l-7.88-153.25c-0.06-1.25,0.81-2.36,2.05-2.58c1.23-0.22,2.44,0.51,2.82,1.71l27.95,88.66
				l42.44-51.72c0.64-0.78,1.69-1.1,2.65-0.8c0.97,0.29,1.66,1.14,1.76,2.15l12.59,129.48c0.12,1.2-0.64,2.31-1.8,2.64
				C466.81,350.54,466.58,350.57,466.36,350.57z M432.71,277.26c0.1,0,0.2,0.01,0.3,0.02c0.84,0.1,1.56,0.62,1.94,1.37l27.6,56.04
				l-10.68-109.85l-41.54,50.62c-0.58,0.71-1.5,1.04-2.4,0.87c-0.9-0.17-1.63-0.83-1.91-1.7l-23.46-74.43l6.55,127.42l41.7-49.49
				C431.28,277.58,431.98,277.26,432.71,277.26z"/>
		</g>
		<g>
			<polygon class="st2" points="126.29,147.61 98.46,241.13 167.01,220.74 104.92,335.05 115.32,259.61 46.97,278.97 			"/>
			<path class="st0" d="M104.92,337.55c-0.26,0-0.52-0.04-0.78-0.12c-1.15-0.38-1.86-1.52-1.69-2.71l9.88-71.66l-64.67,18.32
				c-0.99,0.28-2.04-0.07-2.66-0.89s-0.68-1.93-0.15-2.8l79.32-131.36c0.65-1.08,2-1.5,3.14-0.99c1.15,0.51,1.74,1.79,1.38,2.99
				l-26.51,89.11l64.13-19.07c0.97-0.29,2.01,0.04,2.65,0.82c0.64,0.78,0.74,1.88,0.25,2.76l-62.1,114.31
				C106.67,337.07,105.81,337.55,104.92,337.55z M115.32,257.11c0.59,0,1.18,0.21,1.64,0.61c0.64,0.55,0.95,1.39,0.83,2.22
				l-8.53,61.89l52.68-96.98l-62.77,18.67c-0.88,0.26-1.83,0.02-2.48-0.63c-0.65-0.65-0.89-1.6-0.63-2.48l22.25-74.79L52.38,274.85
				l62.26-17.64C114.86,257.15,115.09,257.11,115.32,257.11z"/>
		</g>
		<g>
			<polygon class="st2" points="224.8,149.58 227.88,215.29 186.32,190.85 208.45,275.71 213.86,224.66 255.45,248.39 			"/>
			<path class="st0" d="M208.45,278.21c-1.13,0-2.12-0.76-2.41-1.87l-22.14-84.86c-0.25-0.98,0.1-2.01,0.91-2.62
				c0.8-0.61,1.9-0.67,2.77-0.16l37.59,22.1l-2.86-61.11c-0.06-1.25,0.82-2.36,2.06-2.57c1.23-0.22,2.44,0.52,2.81,1.72l30.65,98.81
				c0.3,0.98-0.02,2.04-0.82,2.68c-0.8,0.64-1.91,0.73-2.8,0.22l-38.28-21.84l-5,47.26c-0.13,1.2-1.09,2.14-2.29,2.23
				C208.58,278.21,208.51,278.21,208.45,278.21z M190.25,196.06l17.16,65.78l3.96-37.45c0.09-0.84,0.59-1.57,1.34-1.96
				c0.75-0.38,1.64-0.36,2.37,0.05l36.1,20.6l-22.99-74.11l2.16,46.19c0.04,0.92-0.42,1.78-1.2,2.25c-0.78,0.47-1.76,0.48-2.55,0.01
				L190.25,196.06z"/>
		</g>
		<g>
			<path class="st1" d="M193.38,286.8c0,0-38.29-13.36-47.2,23.15c-8.91,36.51,84.6,40.96,135.36,38.29s65.01-16.03,73.91-36.51
				s-14.25-43.64-29.39-37.4c0,0-6.22-34.06-41.85-17.81c0,0-25.83-24.93-56.1-10.69C228.11,245.84,187.15,256.52,193.38,286.8z"/>
			<path class="st0" d="M256.3,351.38c-14.35,0-32.18-0.61-49.92-2.79c-30.31-3.72-49.97-10.8-58.46-21.04
				c-4.41-5.32-5.81-11.44-4.16-18.19c2.68-11,8.2-18.84,16.38-23.29c11.04-6,23.92-4.18,30.22-2.7
				c-2.45-28.04,33.57-38.94,36.89-39.88c27.51-12.81,51.69,5.27,57.42,10.11c11.37-4.86,21.08-5.26,28.9-1.17
				c9.07,4.73,12.89,14.13,14.28,18.76c7.09-1.5,15.56,1.67,22.33,8.57c9.22,9.4,12.19,22.34,7.57,32.97
				c-9.58,22.04-25.1,35.33-76.07,38.01C276.38,351.02,267.37,351.38,256.3,351.38z M177.95,286.92c-4.95,0-10.48,0.84-15.45,3.55
				c-6.88,3.75-11.56,10.51-13.89,20.08c-1.27,5.21-0.24,9.73,3.16,13.82c7.54,9.09,26.63,15.76,55.23,19.27
				c31.02,3.81,62.38,2.75,74.42,2.12c53.43-2.81,64.43-18.17,71.76-35.01c2.89-6.65,2.91-17.83-6.56-27.49
				c-6.23-6.35-13.92-8.95-19.59-6.61c-0.7,0.29-1.48,0.24-2.15-0.12s-1.12-1-1.26-1.74c-0.02-0.12-2.49-12.81-12.39-17.95
				c-6.72-3.49-15.46-2.83-25.98,1.96c-0.93,0.42-2.03,0.24-2.77-0.48c-1-0.97-24.99-23.55-53.31-10.22
				c-0.14,0.07-0.28,0.12-0.43,0.16c-0.1,0.03-10.03,2.68-19.03,8.84c-11.57,7.94-16.25,17.76-13.89,29.21
				c0.18,0.88-0.12,1.79-0.8,2.38c-0.67,0.59-1.61,0.77-2.46,0.48l0,0C192.46,289.12,185.97,286.92,177.95,286.92z"/>
		</g>
		<g>
			<path class="st3" d="M234.35,242.27c0,0,10.67,21.25,36.51,21.37c21.95,0.11,36.17-7.21,36.17-7.21s6.91-4.06,10.91,1.09
				c6.64,8.55-28.8,19.24-50.34,18.42c-21.68-0.82-43.59-16.51-42.85-29.76C225.25,237.31,234.35,242.27,234.35,242.27z"/>
			<path class="st0" d="M269.75,278.48c-0.77,0-1.52-0.01-2.24-0.04c-14.26-0.54-29.79-7.44-38.65-17.17
				c-4.59-5.04-6.87-10.3-6.59-15.23c0.23-4.11,2.07-5.97,3.57-6.8c3.93-2.19,9.13,0.52,9.71,0.84c0.44,0.24,0.8,0.61,1.03,1.07
				c0.41,0.81,10.37,19.89,34.3,20c20.45,0.1,34.05-6.45,34.97-6.91c3.08-1.78,9.88-3.65,14.07,1.75c1.55,1.99,1.77,4.31,0.62,6.55
				C315.86,271.66,287.09,278.48,269.75,278.48z M229.34,243.38c-0.42,0-0.8,0.07-1.08,0.23c-0.77,0.43-0.96,1.89-1.01,2.72
				c-0.2,3.56,1.64,7.57,5.3,11.59c8.02,8.8,22.15,15.05,35.15,15.54c18.94,0.72,45.42-7.37,48.4-13.19
				c0.25-0.5,0.23-0.76-0.12-1.21c-2.59-3.34-7.48-0.58-7.69-0.46c-0.03,0.02-0.08,0.04-0.12,0.06c-0.6,0.31-14.81,7.49-36.83,7.49
				c-0.16,0-0.33,0-0.49,0c-24.52-0.12-36.02-17.94-38.31-21.97C231.57,243.75,230.33,243.38,229.34,243.38z"/>
		</g>
		<g>
			<path class="st0" d="M238.9,310.15c-2.95,0-5.21-0.18-5.95-0.25c-1.61-0.15-2.79-1.57-2.64-3.18c0.15-1.61,1.57-2.79,3.18-2.64
				c8.72,0.8,21.88-0.33,22.44-5.3c0.27-2.38-5.38-7.58-10.62-10.76c-1.38-0.84-1.82-2.63-0.98-4.02c0.84-1.38,2.64-1.82,4.02-0.98
				c0.14,0.08,3.41,2.08,6.65,4.87c4.94,4.26,7.15,8.03,6.75,11.55C260.69,308.72,247.11,310.15,238.9,310.15z"/>
		</g>
		<g>
			<path class="st0" d="M287.21,314.3c-0.14,0-0.28-0.01-0.42-0.03c-3.39-0.49-20.28-3.42-19.5-12.83
				c0.71-8.6,16.22-14.56,19.32-15.67c1.52-0.55,3.19,0.25,3.74,1.77c0.54,1.52-0.25,3.19-1.77,3.74
				c-10.25,3.68-15.29,8.53-15.47,10.65c-0.17,2.08,6,5.32,14.51,6.57c1.6,0.23,2.7,1.72,2.47,3.31
				C289.89,313.25,288.64,314.3,287.21,314.3z"/>
		</g>
		<g>
			<path class="st4" d="M310.28,277.68c0,0-1.31,12.7,8.58,10.73C328.74,286.44,310.28,277.68,310.28,277.68z"/>
			<path class="st0" d="M316.88,289.98c-1.96,0-3.61-0.6-4.92-1.8c-3.73-3.39-3.06-10.35-3.03-10.64c0.04-0.44,0.3-0.83,0.68-1.04
				c0.38-0.22,0.85-0.23,1.25-0.04c3.84,1.82,12.72,6.47,12.24,10.28c-0.19,1.51-1.53,2.52-3.98,3.01
				C318.33,289.9,317.59,289.98,316.88,289.98z M311.59,279.85c0.09,2.08,0.59,4.87,2.2,6.33c1.13,1.03,2.7,1.32,4.81,0.9
				c1.56-0.31,1.83-0.71,1.83-0.72C320.45,285.3,316.44,282.37,311.59,279.85z"/>
		</g>
		<g>
			<path class="st4" d="M225.63,263.48c0,0-11.83,12.33-12.33,8.38C212.81,267.91,212.81,262.98,225.63,263.48z"/>
			<path class="st0" d="M213.98,274.08c-0.23,0-0.44-0.03-0.64-0.1c-0.83-0.27-1.37-0.98-1.49-1.94c-0.21-1.64-0.59-4.7,1.53-7.01
				c2.08-2.27,6.11-3.26,12.3-3.02c0.58,0.02,1.08,0.38,1.3,0.91s0.1,1.14-0.3,1.56C220.57,270.86,216.3,274.08,213.98,274.08z
				 M222.09,264.95c-3.26,0.18-5.46,0.87-6.55,2.06c-0.89,0.97-1.02,2.26-0.86,3.98C216.15,270.29,219.17,267.76,222.09,264.95z"/>
		</g>
		<g>
			<path class="st5" d="M233.14,322.11c0,0-5.25,13.79-19.05,23.16c-13.81,9.37-4.44,24.65,13.81,19.72l18.56-35.48
				C246.45,329.51,233.63,324.58,233.14,322.11z"/>
			<path class="st6" d="M221.23,368.08c-6.24,0-12.34-2.24-14.95-7.92c-2.6-5.67-0.02-12.23,6.57-16.7
				c13.03-8.84,18.19-21.99,18.24-22.12c0.35-0.91,1.26-1.49,2.23-1.4c0.88,0.07,1.62,0.66,1.89,1.48
				c0.94,1.14,6.36,3.88,12.02,6.05c0.58,0.22,1.04,0.69,1.26,1.27c0.22,0.58,0.18,1.24-0.11,1.79l-18.56,35.48
				c-0.28,0.54-0.78,0.94-1.37,1.1C226.16,367.73,223.68,368.08,221.23,368.08z M233.84,325.87c-2.38,4.73-8.09,14.14-18.52,21.22
				c-4.8,3.26-6.74,7.57-5.05,11.25c1.74,3.79,7.5,6.81,16.14,4.78l16.98-32.45C238.54,328.68,235.62,327.1,233.84,325.87z
				 M235.29,321.68h0.01H235.29z"/>
		</g>
		<g>
			<path class="st6" d="M227.94,349.22c-0.54,0-1.08-0.2-1.51-0.6c-0.88-0.83-0.91-2.22-0.08-3.1c8.91-9.39,12.12-17.24,12.15-17.32
				c0.45-1.12,1.73-1.67,2.85-1.22c1.12,0.45,1.67,1.73,1.22,2.85c-0.14,0.35-3.56,8.71-13.04,18.7
				C229.1,348.99,228.52,349.22,227.94,349.22z"/>
		</g>
		<g>
			<path class="st1" d="M140.94,228.35c0,0-6.71-15.47-20.12-15.47s-17.15,24.96-9.8,28.88C126.5,250.01,130.63,226.8,140.94,228.35
				z"/>
			<path class="st0" d="M117.33,246.04c-2.24,0-4.72-0.61-7.48-2.08c-5.34-2.85-5.89-11.68-4.14-18.68
				c2.3-9.19,8.09-14.9,15.12-14.9c14.88,0,22.1,16.28,22.41,16.98c0.36,0.83,0.24,1.79-0.31,2.51c-0.55,0.72-1.45,1.08-2.35,0.95
				c-2.76-0.41-5.14,2.03-8.72,6.1C128.33,240.92,123.83,246.04,117.33,246.04z M120.83,215.37c-5.53,0-8.93,5.74-10.27,11.12
				c-1.58,6.34-0.4,11.97,1.65,13.07c6.92,3.69,10.55,0.15,15.91-5.94c2.68-3.04,5.42-6.16,8.86-7.35
				C134.4,222.16,128.94,215.37,120.83,215.37z"/>
		</g>
		<g>
			<path class="st1" d="M94.84,267.27c0,0,7.43-9.65,20.48-7.66c13.05,1.99-5,24.17-11.71,24.17
				C96.9,283.78,91.75,273.98,94.84,267.27z"/>
			<path class="st0" d="M103.61,286.27c-3.69,0-7.19-2.15-9.59-5.91c-2.81-4.4-3.38-9.95-1.45-14.14c0.08-0.17,0.17-0.33,0.29-0.48
				c0.34-0.44,8.49-10.79,22.83-8.61c4.52,0.69,7.03,3.65,6.71,7.92C121.79,273.19,110.19,286.27,103.61,286.27z M96.99,268.58
				c-1.07,2.63-0.59,6.24,1.23,9.09c1.44,2.26,3.46,3.6,5.38,3.6c2.93,0,13.33-10.08,13.82-16.6c0.09-1.21-0.03-2.23-2.49-2.61
				C104.47,260.48,98.13,267.24,96.99,268.58z"/>
		</g>
		<g>
			<path class="st1" d="M103.61,283.78c0,0-7.74,11.86-3.09,18.05c4.64,6.19,16.51-2.06,18.05-9.28
				C120.11,285.32,111.34,281.71,103.61,283.78z"/>
			<path class="st0" d="M104.99,306.5c-2.66,0-4.9-1.09-6.47-3.18c-5.53-7.37,2.11-19.55,3-20.91c0.34-0.52,0.85-0.89,1.45-1.05
				c5.74-1.53,11.93-0.34,15.41,2.97c2.41,2.3,3.35,5.4,2.63,8.73c-1.22,5.69-7.59,11.84-13.65,13.17
				C106.54,306.41,105.75,306.5,104.99,306.5z M105.19,285.97c-1.95,3.33-5.34,10.81-2.68,14.36c0.3,0.39,1.2,1.6,3.78,1.03
				c4.15-0.91,9.02-5.54,9.84-9.34c0.35-1.64-0.04-2.97-1.19-4.07C112.91,286.03,108.93,285.24,105.19,285.97z"/>
		</g>
		<g>
			<path class="st1" d="M402.46,252.25c0,0,15.75-29.34,29.73-17.08c13.98,12.26-6.25,31.43-11.38,28.56s-12.41,10.15-12.41,10.15
				L402.46,252.25z"/>
			<path class="st0" d="M408.4,276.38c-0.1,0-0.2-0.01-0.3-0.02c-1-0.12-1.84-0.84-2.1-1.81l-5.94-21.63
				c-0.17-0.62-0.09-1.28,0.21-1.84c0.42-0.78,10.33-19.01,22.26-21.17c4.09-0.74,7.9,0.4,11.32,3.4
				c7.08,6.21,7.62,15.14,1.45,23.89c-4.26,6.03-11.46,11.09-15.69,8.73c-1.48-0.83-5.95,3.72-9.02,9.19
				C410.13,275.9,409.29,276.38,408.4,276.38z M405.13,252.57l4.21,15.31c3.13-4.17,8.01-8.93,12.69-6.32
				c1.46,0.31,7.5-3.49,10.76-9.85c2.05-3.99,3.32-9.78-2.24-14.66c-2.25-1.97-4.58-2.71-7.14-2.24
				C415.9,236.17,408.1,247.37,405.13,252.57z"/>
		</g>
		<g>
			<path class="st1" d="M459.16,268.82c0,0,6.51-5.17,13.84-2.33s7.13,19.26,0.99,25.52c-6.14,6.26-14.55,3.8-21.59-6.71
				C445.36,274.8,459.16,268.82,459.16,268.82z"/>
			<path class="st0" d="M466.56,297.91c-0.37,0-0.75-0.02-1.13-0.05c-5.32-0.49-10.55-4.36-15.11-11.17
				c-2.3-3.43-2.97-6.86-1.99-10.19c1.72-5.83,8.08-9.14,9.54-9.83c1.44-1.05,8.26-5.51,16.02-2.5c3.27,1.27,5.62,4.51,6.62,9.14
				c1.34,6.2,0.13,15.48-4.75,20.46C473.09,296.49,469.93,297.91,466.56,297.91z M460.15,271.11L460.15,271.11
				c-1.61,0.71-6.02,3.31-7.04,6.81c-0.54,1.86-0.1,3.82,1.35,5.99c3.65,5.44,7.7,8.63,11.42,8.98c2.27,0.21,4.39-0.67,6.31-2.62
				c3.1-3.17,4.64-10.31,3.43-15.91c-0.37-1.7-1.31-4.67-3.54-5.54c-5.86-2.27-11.34,1.92-11.39,1.96
				C460.53,270.91,460.35,271.02,460.15,271.11z M459.16,268.82L459.16,268.82L459.16,268.82z"/>
		</g>
		<g>
			<path class="st1" d="M473.98,292.01c0,0,7.43,13.78,2.43,23.32c-5.01,9.53-18.6,0.55-21.24-8.54
				c-2.65-9.09,7.17-12.47,7.17-12.47S471.5,298.97,473.98,292.01z"/>
			<path class="st0" d="M470.05,321.91c-0.37,0-0.75-0.02-1.14-0.06c-6.68-0.67-14.07-7.25-16.14-14.36
				c-2.62-9,4.58-14.09,8.75-15.53c0.64-0.22,1.34-0.17,1.94,0.13c1.03,0.52,4.46,1.81,6.53,0.98c0.48-0.19,1.18-0.6,1.64-1.9
				c0.33-0.93,1.18-1.57,2.16-1.65c0.97-0.08,1.92,0.44,2.39,1.3c0.33,0.61,8,15.08,2.44,25.66
				C476.77,320.01,473.75,321.9,470.05,321.91z M462.29,297.03c-1.98,0.93-6.31,3.64-4.73,9.06c1.48,5.08,7.24,10.32,11.85,10.79
				c2.17,0.22,3.7-0.64,4.79-2.71c2.88-5.49,0.88-12.92-0.8-17.31c-0.48,0.34-1.01,0.63-1.57,0.85
				C468.32,299.11,464.24,297.83,462.29,297.03z"/>
		</g>
		<g>
			<polygon class="st2" points="247.44,328.84 214.9,387.69 260.26,390.16 232.65,466.58 299.9,369.84 262.72,368.96 280.5,327.52 
				260.67,329.73 			"/>
			<path class="st0" d="M232.65,469.08c-0.39,0-0.78-0.09-1.14-0.28c-1.11-0.58-1.63-1.89-1.2-3.06l26.47-73.27l-42.01-2.28
				c-0.86-0.05-1.63-0.53-2.05-1.28c-0.42-0.75-0.42-1.67,0-2.42l32.55-58.85c0.47-0.85,1.39-1.35,2.35-1.28l13,0.87l19.62-2.18
				c0.89-0.1,1.75,0.28,2.28,0.99c0.53,0.71,0.64,1.65,0.29,2.47l-16.33,38.04l33.49,0.8c0.92,0.02,1.75,0.55,2.17,1.36
				c0.42,0.82,0.35,1.8-0.18,2.55l-67.25,96.74C234.21,468.7,233.44,469.08,232.65,469.08z M219.01,385.42l41.39,2.25
				c0.79,0.04,1.51,0.46,1.94,1.11c0.44,0.66,0.53,1.48,0.27,2.23l-21.15,58.53l53.74-77.31l-32.54-0.77
				c-0.83-0.02-1.59-0.45-2.04-1.15c-0.45-0.7-0.52-1.57-0.19-2.33l16.09-37.5l-15.58,1.73c-0.15,0.02-0.29,0.02-0.44,0.01
				l-11.64-0.78L219.01,385.42z"/>
		</g>
		<g>
			<path class="st0" d="M261.97,332.71c-0.92,0-1.85-0.01-2.8-0.04c-31.59-0.83-47.62-23.79-48.28-24.77
				c-1.14-1.67-0.71-3.94,0.96-5.08c1.66-1.14,3.94-0.71,5.08,0.95c0.25,0.35,14.79,20.86,42.44,21.58
				c33.25,0.91,52-15.65,52.18-15.82c1.5-1.35,3.81-1.23,5.16,0.26c1.35,1.49,1.24,3.8-0.25,5.15
				C315.64,315.7,296.53,332.71,261.97,332.71z"/>
		</g>
	</g>
</g>
</svg>
